# xmcd
#
# Track frame offsets:
#	150
#	15979
#	54296
#	83229
#	128699
#	157803
#	185419
#	202506
#	224858
#	264548
#
# Disc length: 4084 seconds
#
# Revision: 0
# Processed by: cddbd v1.5.2PL0 Copyright (c) Steve Scherf et al.
# Submitted via: EZCDAudioConverter 5.0.5.1
#
DISCID=790ff20a
DTITLE=Various Artist - 十大文武琵琶
DYEAR=1900
DGENRE=
TTITLE0=十面埋伏
TTITLE1=夕陽簫鼓
TTITLE2=小霓裳
TTITLE3=月兒高
TTITLE4=青蓮樂府
TTITLE5=春光花月夜
TTITLE6=海青拿天鵝
TTITLE7=寒鴉戲水
TTITLE8=漁舟唱晚
TTITLE9=霸王卸甲
EXTD=
EXTT0=
EXTT1=
EXTT2=
EXTT3=
EXTT4=
EXTT5=
EXTT6=
EXTT7=
EXTT8=
EXTT9=
PLAYORDER=
